<svg xmlns="http://www.w3.org/2000/svg" version="1.1" xmlns:xlink="http://www.w3.org/1999/xlink" xmlns:svgjs="http://svgjs.com/svgjs" width="512" height="512" x="0" y="0" viewBox="0 0 32 32" style="enable-background:new 0 0 512 512" xml:space="preserve" class=""><g><g fill="#000" fill-rule="evenodd" clip-rule="evenodd"><path d="M4 16a1 1 0 0 1 1-1h22a1 1 0 1 1 0 2H5a1 1 0 0 1-1-1z" fill="#ffffff" data-original="#000000" class=""></path><path d="M17.293 6.293a1 1 0 0 1 1.414 0l9 9a1 1 0 0 1 0 1.414l-9 9a1 1 0 0 1-1.414-1.414L25.586 16l-8.293-8.293a1 1 0 0 1 0-1.414z" fill="#ffffff" data-original="#000000" class=""></path></g></g></svg>